<svg width="580" height="124" viewBox="0 0 580 124" fill="none" xmlns="http://www.w3.org/2000/svg">
<path d="M30.9352 70.3312C29.3037 69.3008 27.4576 68.4851 25.3968 67.884C23.4219 67.2829 21.3611 66.7248 19.2144 66.2096C17.1536 65.6944 15.1357 65.1363 13.1608 64.5352C11.1859 63.8483 9.38267 62.9037 7.7512 61.7016C4.23067 59.0397 2.16987 55.7768 1.5688 51.9128C1.0536 47.9629 1.91227 44.0131 4.1448 40.0632C5.34693 38.0024 6.93547 36.328 8.9104 35.04C10.8853 33.6661 13.032 32.6357 15.3504 31.9488C17.7547 31.176 20.2019 30.7467 22.692 30.6608C25.1821 30.5749 27.5435 30.7037 29.776 31.0472C31.2357 31.3048 32.7813 31.6912 34.4128 32.2064C36.0443 32.6357 37.5469 33.2368 38.9208 34.0096C40.3805 34.7824 41.6685 35.7699 42.7848 36.972C43.9869 38.0883 44.8456 39.5051 45.3608 41.2224C45.7043 42.3387 45.7472 43.412 45.4896 44.4424C45.3179 45.4728 44.8885 46.3315 44.2016 47.0184C43.6005 47.7053 42.7848 48.2205 41.7544 48.564C40.8099 48.9075 39.7795 48.9933 38.6632 48.8216C37.3752 48.564 36.1731 48.1776 35.0568 47.6624C33.9405 47.1472 32.8243 46.5891 31.708 45.988C30.5917 45.3869 29.4325 44.8717 28.2304 44.4424C27.1141 44.0131 25.912 43.7984 24.624 43.7984C22.6491 43.7125 21.0176 44.056 19.7296 44.8288C18.4416 45.6016 17.54 46.5461 17.0248 47.6624C16.5955 48.7787 16.6384 49.9808 17.1536 51.2688C17.7547 52.5568 18.9568 53.6731 20.76 54.6176C22.3915 55.4763 24.1947 56.1632 26.1696 56.6784C28.1445 57.1936 30.0765 57.7088 31.9656 58.224C33.9405 58.7392 35.8296 59.3403 37.6328 60.0272C39.5219 60.7141 41.1963 61.6587 42.656 62.8608C45.4896 65.1792 47.2069 67.884 47.808 70.9752C48.4949 74.0664 48.3232 77.1147 47.2928 80.12C46.2624 83.1253 44.4592 85.7872 41.8832 88.1056C39.3931 90.424 36.4307 91.9696 32.996 92.7424C30.5059 93.2576 27.8011 93.5152 24.8816 93.5152C22.048 93.5152 19.2144 93.2147 16.3808 92.6136C13.6331 92.0125 10.9712 91.068 8.3952 89.78C5.90507 88.492 3.80133 86.8605 2.084 84.8856C0.881867 83.5117 0.237867 81.9661 0.152 80.2488C0.152 78.4456 0.495467 76.9 1.1824 75.612C1.9552 74.2381 3.02853 73.2936 4.4024 72.7784C5.77627 72.2632 7.32187 72.5637 9.0392 73.68C10.4131 74.6245 12.0445 75.5691 13.9336 76.5136C15.8227 77.3723 17.7117 78.0592 19.6008 78.5744C21.4899 79.0896 23.2931 79.3472 25.0104 79.3472C26.8136 79.3472 28.3592 78.9608 29.6472 78.188C31.5363 76.9859 32.5237 75.612 32.6096 74.0664C32.6955 72.4349 32.1373 71.1899 30.9352 70.3312ZM133.731 35.04C134.503 36.1563 134.761 37.9165 134.503 40.3208C134.332 42.6392 133.902 45.1723 133.215 47.92C132.529 50.5819 131.713 53.2437 130.768 55.9056C129.824 58.4816 129.051 60.6283 128.45 62.3456C126.99 66.2955 125.702 69.9877 124.586 73.4224C123.47 76.8571 122.139 80.6352 120.593 84.7568C120.078 85.9589 119.563 87.1611 119.047 88.3632C118.618 89.5653 118.06 90.6387 117.373 91.5832C116.772 92.5277 115.999 93.3005 115.055 93.9016C114.196 94.5027 113.123 94.8032 111.835 94.8032C110.375 94.8032 109.087 94.288 107.971 93.2576C106.94 92.2272 106.039 90.9392 105.266 89.3936C104.579 87.848 103.978 86.2165 103.463 84.4992C102.947 82.7819 102.518 81.2792 102.175 79.9912C101.058 76.2131 100.071 72.7784 99.2123 69.6872C98.3536 66.5101 97.5808 63.6765 96.8939 61.1864C96.1211 63.6765 95.3483 66.3813 94.5755 69.3008C93.8027 72.2203 92.8152 75.5261 91.6131 79.2184C91.2696 80.5064 90.8403 82.0949 90.3251 83.984C89.8099 85.7872 89.1659 87.5045 88.3931 89.136C87.7062 90.7675 86.8045 92.1413 85.6883 93.2576C84.6579 94.4597 83.4128 94.9749 81.9531 94.8032C79.8923 94.7173 78.0891 93.9016 76.5435 92.356C75.0837 90.7245 73.7957 88.7925 72.6795 86.56C71.6491 84.3275 70.7475 82.0091 69.9747 79.6048C69.2019 77.2005 68.5579 75.0968 68.0427 73.2936C67.3557 70.9752 66.54 68.3992 65.5955 65.5656C64.6509 62.732 63.7064 59.8555 62.7619 56.936C61.9032 53.9307 61.0875 50.9683 60.3147 48.0488C59.5419 45.0435 59.0267 42.2957 58.7691 39.8056C58.5973 38.1741 58.8979 36.6715 59.6707 35.2976C60.5293 33.9237 61.6027 32.9792 62.8907 32.464C64.2645 31.8629 65.7243 31.7341 67.2699 32.0776C68.9013 32.4211 70.3611 33.4515 71.6491 35.1688C72.336 36.0275 72.9371 37.1008 73.4523 38.3888C74.0533 39.6768 74.5685 41.0936 74.9979 42.6392C75.4272 44.0989 75.8565 45.6016 76.2859 47.1472C76.7152 48.6928 77.1445 50.1955 77.5739 51.6552C78.5184 54.9181 79.2912 57.4941 79.8923 59.3832C80.5792 61.1864 81.2662 63.0755 81.9531 65.0504C82.5542 63.0755 83.1552 61.1864 83.7563 59.3832C84.4432 57.4941 85.259 54.9181 86.2035 51.6552C86.547 50.6248 86.9334 49.4656 87.3627 48.1776C87.8779 46.8037 88.3931 45.5157 88.9083 44.3136C89.5093 43.1115 90.1534 41.9952 90.8403 40.9648C91.6131 39.8485 92.4288 39.0328 93.2875 38.5176C95.1766 37.2296 96.8939 36.9291 98.4395 37.616C99.9851 38.2171 101.316 39.2904 102.432 40.836C103.549 42.3816 104.493 44.1848 105.266 46.2456C106.125 48.2205 106.811 50.0237 107.327 51.6552C107.842 53.3725 108.314 54.8752 108.743 56.1632C109.173 57.3653 109.559 58.4816 109.903 59.512C110.246 60.5424 110.547 61.5299 110.804 62.4744C111.148 63.4189 111.491 64.4064 111.835 65.4368C112.178 64.4064 112.479 63.4189 112.736 62.4744C113.08 61.5299 113.423 60.5424 113.767 59.512C114.11 58.4816 114.497 57.3653 114.926 56.1632C115.355 54.8752 115.827 53.3725 116.343 51.6552C116.686 50.5389 117.03 49.2509 117.373 47.7912C117.802 46.3315 118.232 44.8717 118.661 43.412C119.09 41.8664 119.52 40.4067 119.949 39.0328C120.464 37.6589 121.022 36.4997 121.623 35.5552C122.225 34.6107 123.04 33.8379 124.071 33.2368C125.101 32.5499 126.174 32.1635 127.291 32.0776C128.407 31.9059 129.523 32.0347 130.639 32.464C131.842 32.8933 132.872 33.752 133.731 35.04ZM204.171 35.5552C204.944 36.7573 205.287 38.0453 205.202 39.4192C205.202 41.3941 204.858 43.1115 204.171 44.5712C203.999 45.0005 203.742 45.5587 203.398 46.2456C203.141 46.9325 202.84 47.6624 202.497 48.4352C202.239 49.208 201.939 49.9379 201.595 50.6248C201.252 51.3117 200.994 51.8269 200.822 52.1704L200.565 52.8144C199.363 55.4763 198.203 58.0523 197.087 60.5424C195.971 63.0325 194.726 65.6944 193.352 68.528C191.978 71.2757 190.647 73.9805 189.359 76.6424C188.157 79.2184 186.955 81.7515 185.753 84.2416C185.409 84.9285 185.109 85.6155 184.851 86.3024C184.594 86.9035 184.25 87.5475 183.821 88.2344L177.638 101.501C176.522 103.733 175.449 105.923 174.418 108.07C173.474 110.216 172.401 112.363 171.198 114.51C170.941 114.939 170.683 115.325 170.426 115.669C170.254 116.098 170.082 116.527 169.91 116.957C169.309 117.987 168.408 118.975 167.206 119.919C166.089 120.95 164.887 121.508 163.599 121.594C161.281 121.765 159.263 121.078 157.546 119.533C156.515 118.932 155.699 118.073 155.098 116.957C154.755 116.184 154.583 115.197 154.583 113.994C154.669 113.479 154.712 112.964 154.712 112.449C154.798 112.019 154.884 111.59 154.97 111.161C155.141 110.731 155.27 110.302 155.356 109.873C155.442 109.443 155.571 109.1 155.742 108.842C156 108.155 156.215 107.812 156.386 107.812L165.789 87.4616C165.359 86.5171 164.93 85.5725 164.501 84.628C164.071 83.5976 163.685 82.696 163.342 81.9232C162.225 79.2613 161.023 76.4707 159.735 73.5512C158.533 70.5459 157.288 67.5835 156 64.664C154.712 61.6587 153.381 58.7392 152.007 55.9056C150.633 53.072 149.259 50.3672 147.886 47.7912C147.37 46.9325 146.898 46.0309 146.469 45.0864C146.039 44.056 145.696 43.0685 145.438 42.124C145.181 41.0936 145.095 40.0632 145.181 39.0328C145.267 38.0024 145.653 36.972 146.34 35.9416C147.027 34.6536 147.929 33.752 149.045 33.2368C150.161 32.6357 151.32 32.3781 152.522 32.464C153.81 32.464 155.013 32.7216 156.129 33.2368C157.245 33.752 158.147 34.4389 158.834 35.2976C160.293 36.8432 161.453 38.5605 162.311 40.4496C163.17 42.3387 163.986 44.2707 164.758 46.2456C166.39 49.6803 168.064 53.2867 169.782 57.0648C171.499 60.8429 173.216 64.5352 174.934 68.1416L181.631 53.9736C182.318 52.5997 182.919 51.2688 183.434 49.9808C184.035 48.6928 184.637 47.4477 185.238 46.2456C185.925 44.7859 186.569 43.2832 187.17 41.7376C187.857 40.192 188.629 38.7752 189.488 37.4872C189.66 37.1437 189.831 36.8432 190.003 36.5856C190.175 36.328 190.347 36.0275 190.518 35.684C191.291 34.6536 191.978 33.8379 192.579 33.2368C193.009 32.8933 193.352 32.6357 193.61 32.464C193.953 32.2064 194.339 32.0347 194.769 31.9488C195.37 31.7771 195.928 31.6912 196.443 31.6912C197.044 31.6053 197.602 31.6053 198.118 31.6912C198.976 31.9488 200.007 32.3352 201.209 32.8504C202.497 33.3656 203.484 34.2672 204.171 35.5552ZM251.679 35.04C254.169 36.0704 256.445 37.5731 258.506 39.548C260.566 41.4371 262.327 43.6267 263.786 46.1168C265.332 48.6069 266.491 51.3117 267.264 54.2312C268.123 57.0648 268.552 59.9413 268.552 62.8608C268.638 67.24 267.608 71.3616 265.461 75.2256C263.4 79.0896 260.008 82.052 255.286 84.1128C251.679 85.5725 247.944 86.6888 244.08 87.4616C240.302 88.1485 236.352 88.6208 232.23 88.8784V112.449C232.23 112.964 232.145 113.436 231.973 113.866C231.887 114.295 231.844 114.724 231.844 115.154C231.672 116.012 231.458 116.785 231.2 117.472C231.028 118.159 230.771 118.889 230.427 119.662C230.084 120.177 229.74 120.649 229.397 121.078C229.053 121.508 228.667 121.937 228.238 122.366C226.177 123.397 224.03 123.611 221.798 123.01C220.424 122.925 219.308 122.495 218.449 121.722C217.676 120.95 217.118 120.134 216.774 119.275C216.431 118.417 216.13 117.429 215.873 116.313C215.787 115.883 215.701 115.454 215.615 115.025C215.615 114.681 215.615 114.295 215.615 113.866V42.124C215.615 41.6088 215.615 41.0936 215.615 40.5784C215.701 39.9773 215.787 39.3763 215.873 38.7752C215.959 37.7448 216.216 36.7144 216.646 35.684C217.418 33.5373 219.007 32.0776 221.411 31.3048C223.816 30.532 226.52 30.1885 229.526 30.2744C231.586 30.3603 233.69 30.5749 235.837 30.9184C238.069 31.2619 240.173 31.6912 242.148 32.2064C244.209 32.6357 246.055 33.108 247.686 33.6232C249.318 34.1384 250.649 34.6107 251.679 35.04ZM251.937 62.8608C252.28 60.4565 251.98 58.4387 251.035 56.8072C250.177 55.0899 248.932 53.716 247.3 52.6856C245.669 51.5693 243.78 50.7107 241.633 50.1096C239.572 49.5085 237.511 49.0792 235.45 48.8216C235.193 48.7357 234.764 48.6928 234.162 48.6928C233.647 48.6928 233.046 48.6928 232.359 48.6928C232.359 51.4405 232.359 54.1024 232.359 56.6784C232.445 59.1685 232.445 61.8733 232.359 64.7928V73.4224C234.334 73.3365 236.395 73.1219 238.542 72.7784C240.774 72.4349 242.835 71.8768 244.724 71.104C246.613 70.3312 248.202 69.3008 249.49 68.0128C250.864 66.7248 251.679 65.0075 251.937 62.8608ZM323.574 75.3544C324.604 75.0968 325.635 74.9251 326.665 74.8392C327.781 74.7533 328.769 74.8821 329.627 75.2256C330.572 75.5691 331.345 76.1701 331.946 77.0288C332.547 77.8016 332.847 78.9179 332.847 80.3776C332.847 81.408 332.59 82.3955 332.075 83.34C331.559 84.2845 330.915 85.1432 330.143 85.916C329.37 86.6888 328.511 87.3757 327.567 87.9768C326.622 88.492 325.721 88.9213 324.862 89.2648C322.372 90.3811 319.495 91.2397 316.232 91.8408C313.055 92.4419 309.749 92.6565 306.315 92.4848C301.678 92.3131 297.213 91.4115 292.919 89.78C288.712 88.0627 285.406 85.272 283.002 81.408C280.769 77.6299 279.438 73.4224 279.009 68.7856C278.58 64.1488 278.794 59.7696 279.653 55.648C280.598 50.6677 282.186 46.632 284.419 43.5408C286.737 40.3637 289.485 37.8307 292.662 35.9416C296.526 33.7091 300.862 32.5499 305.671 32.464C310.479 32.3781 315.073 33.3227 319.452 35.2976C322.372 36.5856 324.991 38.3459 327.309 40.5784C329.627 42.7251 331.388 45.344 332.59 48.4352C332.933 49.208 333.191 50.1525 333.363 51.2688C333.62 52.3851 333.792 53.5872 333.878 54.8752C333.964 56.0773 333.964 57.2795 333.878 58.4816C333.792 59.6837 333.577 60.7571 333.234 61.7016C332.719 63.2472 332.075 64.4493 331.302 65.308C330.529 66.1667 329.542 66.8107 328.339 67.24C327.137 67.6693 325.678 67.9699 323.96 68.1416C322.329 68.2275 320.354 68.3133 318.035 68.3992C315.975 68.4851 314.043 68.528 312.239 68.528C310.436 68.528 308.59 68.528 306.701 68.528C304.812 68.4421 302.837 68.3992 300.776 68.3992C298.801 68.3133 296.569 68.2275 294.079 68.1416C293.821 69.8589 294.036 71.3616 294.723 72.6496C295.495 73.8517 296.526 74.8821 297.814 75.7408C299.102 76.5136 300.562 77.1147 302.193 77.544C303.825 77.9733 305.413 78.2309 306.959 78.3168C309.878 78.4885 312.669 78.2739 315.331 77.6728C317.993 76.9859 320.74 76.2131 323.574 75.3544ZM318.035 50.3672C316.404 48.4781 314.687 47.1043 312.883 46.2456C311.51 45.6445 310.05 45.3869 308.504 45.4728C307.045 45.4728 305.628 45.6875 304.254 46.1168C301.764 46.7179 299.66 48.0059 297.943 49.9808C297.771 50.1525 297.47 50.5819 297.041 51.2688C296.612 51.8699 296.182 52.5139 295.753 53.2008C295.41 53.8877 295.152 54.5317 294.98 55.1328C294.809 55.7339 294.894 56.0344 295.238 56.0344H320.483C320.397 54.8323 320.182 53.8448 319.839 53.072C319.495 52.2133 318.894 51.3117 318.035 50.3672ZM392.203 43.412C392.89 44.6141 393.234 45.9021 393.234 47.276C393.319 48.6499 393.019 49.9379 392.332 51.14C391.559 52.6856 390.443 53.7589 388.983 54.36C387.609 54.8752 386.064 54.9181 384.346 54.4888C383.574 54.3171 382.887 54.0165 382.286 53.5872C381.684 53.1579 381.04 52.7285 380.354 52.2992C379.752 51.784 379.023 51.3117 378.164 50.8824C377.391 50.4531 376.361 50.1525 375.073 49.9808C373.785 49.8091 372.368 49.8091 370.822 49.9808C369.363 50.1525 368.032 50.496 366.83 51.0112C364.94 51.9557 363.438 53.4155 362.322 55.3904C361.205 57.2795 360.475 59.3403 360.132 61.5728C359.788 63.7195 359.831 65.9091 360.261 68.1416C360.776 70.3741 361.72 72.2632 363.094 73.8088C364.125 75.0109 365.456 75.9984 367.087 76.7712C368.804 77.544 370.436 78.0163 371.982 78.188C373.441 78.3597 374.901 78.3597 376.361 78.188C377.82 77.9304 379.237 77.5869 380.611 77.1576C381.642 76.7283 382.801 76.1701 384.089 75.4832C385.377 74.7104 386.622 74.2381 387.824 74.0664C389.37 74.0664 390.572 74.4957 391.43 75.3544C392.289 76.1272 392.89 77.1147 393.234 78.3168C393.577 79.4331 393.62 80.6352 393.362 81.9232C393.191 83.2112 392.718 84.3275 391.946 85.272C390.915 86.56 389.455 87.8051 387.566 89.0072C385.677 90.1235 383.874 90.9392 382.157 91.4544C380.096 92.1413 377.778 92.5277 375.202 92.6136C372.711 92.6995 370.35 92.6136 368.118 92.356C367.087 92.1843 366.014 91.9696 364.898 91.712C363.781 91.4544 362.708 91.1539 361.678 90.8104C357.899 89.4365 354.722 87.5045 352.146 85.0144C349.656 82.4384 347.724 79.5619 346.35 76.3848C345.062 73.2077 344.332 69.816 344.161 66.2096C343.989 62.6032 344.418 59.0397 345.449 55.5192C346.393 52.1704 347.552 49.3368 348.926 47.0184C350.386 44.7 352.06 42.8109 353.95 41.3512C355.924 39.8056 358.114 38.6035 360.518 37.7448C362.923 36.8003 365.584 35.9845 368.504 35.2976C371.509 34.6965 374.686 34.6965 378.035 35.2976C381.384 35.8987 384.389 37.0149 387.051 38.6464C389.112 39.7627 390.829 41.3512 392.203 43.412ZM454.016 67.6264C454.102 69.3437 454.145 71.1469 454.145 73.036C454.145 74.8392 454.102 76.5136 454.016 78.0592C453.93 80.3776 453.801 82.5243 453.63 84.4992C453.458 86.3883 453.114 88.0197 452.599 89.3936C452.084 90.6816 451.268 91.6691 450.152 92.356C449.122 92.9571 447.662 93.1288 445.773 92.8712C443.798 92.6136 442.381 91.6691 441.522 90.0376C440.664 88.4061 440.063 86.56 439.719 84.4992C439.462 82.3525 439.376 80.2059 439.462 78.0592C439.548 75.9125 439.548 74.2381 439.462 73.036C439.376 71.1469 439.29 69.0003 439.204 66.596C439.204 64.1059 438.946 61.7875 438.431 59.6408C438.002 57.4083 437.229 55.5192 436.113 53.9736C434.997 52.428 433.322 51.6123 431.09 51.5264C428.256 51.3547 426.066 51.5693 424.521 52.1704C423.061 52.7715 421.988 53.6731 421.301 54.8752C420.614 55.9915 420.185 57.3653 420.013 58.9968C419.927 60.6283 419.755 62.3885 419.498 64.2776L419.369 69.3008V78.7032C419.369 80.2488 419.326 81.8803 419.24 83.5976C419.24 85.2291 418.982 86.7317 418.467 88.1056C417.952 89.4795 417.136 90.6387 416.02 91.5832C414.99 92.5277 413.444 93 411.383 93C408.807 93 406.875 92.1843 405.587 90.5528C404.385 88.8355 403.784 86.7317 403.784 84.2416V10.1816C403.784 9.66639 403.784 9.19413 403.784 8.76479C403.87 8.24959 403.956 7.7344 404.042 7.2192C404.213 6.70399 404.342 6.23172 404.428 5.80239C404.514 5.28719 404.643 4.81493 404.814 4.38559C405.072 3.52693 405.501 2.88293 406.102 2.4536C406.532 2.02426 406.961 1.6808 407.39 1.42319C407.82 1.16559 408.292 0.993859 408.807 0.907994C409.237 0.822128 409.709 0.779195 410.224 0.779195C410.739 0.69333 411.254 0.650397 411.77 0.650397C413.058 0.650397 414.303 1.0368 415.505 1.8096C416.02 2.15306 416.492 2.53946 416.922 2.96879C417.351 3.31226 417.694 3.82746 417.952 4.51439C418.639 6.14586 418.982 7.69146 418.982 9.1512C419.068 9.58053 419.111 10.2245 419.111 11.0832C419.197 11.856 419.24 12.6717 419.24 13.5304C419.24 14.3891 419.24 15.2477 419.24 16.1064C419.326 16.8792 419.369 17.4803 419.369 17.9096V18.5536C419.455 21.3013 419.498 24.092 419.498 26.9256C419.498 29.7592 419.498 32.6357 419.498 35.5552V37.7448C423.104 36.5427 426.882 35.9845 430.832 36.0704C434.782 36.0704 438.302 36.8432 441.394 38.3888C444.571 40.0203 446.975 41.8664 448.606 43.9272C450.324 45.988 451.569 48.2635 452.342 50.7536C453.114 53.2437 453.544 55.9056 453.63 58.7392C453.801 61.5728 453.93 64.5352 454.016 67.6264ZM479.48 38.7752C482.056 37.4872 484.761 36.5856 487.595 36.0704C490.428 35.4693 493.219 35.3405 495.967 35.684C498.8 35.9416 501.505 36.6715 504.081 37.8736C506.657 38.9899 509.061 40.6213 511.294 42.768C513.526 45.0005 515.244 47.4477 516.446 50.1096C517.648 52.7715 518.507 55.7339 519.022 58.9968C519.365 61.2293 519.923 63.2901 520.696 65.1792C521.469 67.0683 522.285 68.9573 523.143 70.8464C524.088 72.7355 524.947 74.6245 525.719 76.5136C526.578 78.4027 527.265 80.3776 527.78 82.4384C528.21 84.4133 528.038 86.3453 527.265 88.2344C526.578 90.0376 525.118 91.1539 522.886 91.5832C521.598 91.8408 520.353 91.7549 519.151 91.3256C518.034 90.8104 517.004 90.1235 516.059 89.2648C515.115 88.3203 514.256 87.3328 513.483 86.3024C512.796 85.1861 512.152 84.1557 511.551 83.2112C509.576 85.7872 507.43 87.8051 505.111 89.2648C502.793 90.6387 500.002 91.5403 496.739 91.9696C493.992 92.3131 491.373 92.3989 488.883 92.2272C486.392 92.0555 483.731 91.5832 480.897 90.8104C477.205 89.8659 474.156 88.2344 471.752 85.916C469.434 83.5117 467.631 80.764 466.343 77.6728C465.14 74.4957 464.496 71.104 464.411 67.4976C464.325 63.8912 464.754 60.3277 465.699 56.8072C466.901 52.1704 468.704 48.3923 471.108 45.4728C473.512 42.5533 476.303 40.3208 479.48 38.7752ZM482.7 53.8448C481.498 55.0469 480.554 56.4637 479.867 58.0952C479.18 59.7267 478.75 61.444 478.579 63.2472C478.493 65.0504 478.664 66.8536 479.094 68.6568C479.523 70.46 480.21 72.0485 481.155 73.4224C482.013 74.6245 483.473 75.6549 485.534 76.5136C487.595 77.2864 489.741 77.7587 491.974 77.9304C494.55 78.1021 496.782 77.4152 498.671 75.8696C500.646 74.324 502.106 72.392 503.051 70.0736C504.081 67.6693 504.553 65.1363 504.467 62.4744C504.382 59.7267 503.652 57.2365 502.278 55.004C501.247 53.3725 499.874 52.1704 498.156 51.3976C496.525 50.6248 494.764 50.2384 492.875 50.2384C490.986 50.1525 489.097 50.4531 487.208 51.14C485.405 51.7411 483.902 52.6427 482.7 53.8448ZM578.274 36.1992C578.961 37.8307 579.004 39.6339 578.403 41.6088C577.887 43.5837 576.9 44.8717 575.44 45.4728C574.667 45.8163 573.637 46.1168 572.349 46.3744C571.061 46.5461 569.644 46.7179 568.099 46.8896C566.639 47.0613 565.179 47.1901 563.719 47.276C562.26 47.3619 561.015 47.4048 559.984 47.4048C560.07 49.9808 560.156 52.6427 560.242 55.3904C560.328 58.0523 560.414 60.6712 560.499 63.2472C560.585 65.8232 560.628 68.3133 560.628 70.7176C560.628 73.036 560.585 75.1397 560.499 77.0288C560.499 78.3168 560.499 79.8195 560.499 81.5368C560.499 83.1683 560.371 84.7568 560.113 86.3024C559.941 87.848 559.641 89.2219 559.211 90.424C558.782 91.5403 558.138 92.2701 557.279 92.6136C554.618 93.7299 552.17 94.0304 549.938 93.5152C547.791 93.0859 546.246 92.1843 545.301 90.8104C544.614 89.6941 544.099 88.4061 543.755 86.9464C543.412 85.4008 543.154 83.8552 542.983 82.3096C542.897 80.6781 542.854 79.1325 542.854 77.6728C542.94 76.1272 542.983 74.7963 542.983 73.68C543.069 70.0736 543.111 65.9949 543.111 61.444C543.197 56.8072 543.24 52.1704 543.24 47.5336H541.308C540.278 47.5336 538.947 47.5336 537.315 47.5336C535.77 47.4477 534.181 47.3189 532.55 47.1472C531.004 46.8896 529.545 46.5891 528.171 46.2456C526.797 45.8163 525.809 45.2152 525.208 44.4424C524.264 43.3261 523.663 42.124 523.405 40.836C523.233 39.548 523.319 38.3459 523.663 37.2296C524.092 36.0275 524.736 34.9971 525.595 34.1384C526.453 33.1939 527.441 32.5928 528.557 32.3352C530.103 31.9059 532.292 31.6912 535.126 31.6912C537.959 31.6053 540.621 31.6053 543.111 31.6912C543.026 30.8325 542.983 30.0168 542.983 29.244C542.983 28.3853 542.94 27.5696 542.854 26.7968C542.768 25.7664 542.725 24.4784 542.725 22.9328C542.725 21.3013 542.811 19.7128 542.983 18.1672C543.24 16.5357 543.627 15.0331 544.142 13.6592C544.657 12.1995 545.387 11.0832 546.331 10.3104C547.619 9.27999 548.907 8.72186 550.195 8.63599C551.569 8.46426 552.814 8.636 553.931 9.1512C555.133 9.66639 556.12 10.4392 556.893 11.4696C557.752 12.4141 558.353 13.4875 558.696 14.6896C558.954 15.72 559.169 16.9651 559.34 18.4248C559.512 19.7987 559.598 21.2584 559.598 22.804C559.684 24.3496 559.727 25.8952 559.727 27.4408C559.727 28.9864 559.727 30.4032 559.727 31.6912H561.015C562.303 31.6912 563.805 31.6483 565.523 31.5624C567.24 31.4765 568.914 31.5195 570.546 31.6912C572.263 31.8629 573.809 32.2923 575.183 32.9792C576.557 33.5803 577.587 34.6536 578.274 36.1992Z" fill="white"/>
</svg>
